G04 Layer_Color=25308*
%FSLAX25Y25*%
%MOIN*%
G70*
G01*
G75*
%ADD10R,0.03937X0.05118*%
%ADD11R,0.07874X0.03937*%
%ADD12R,0.03937X0.07874*%
%ADD14C,0.07874*%
%ADD15C,0.06000*%
%ADD16R,0.06000X0.06000*%
%ADD17C,0.05906*%
%ADD18R,0.05906X0.05906*%
%ADD19O,0.08000X0.06000*%
%ADD20R,0.05906X0.05906*%
D10*
X156047Y413500D02*
D03*
X161953D02*
D03*
D11*
X131972Y485780D02*
D03*
Y477906D02*
D03*
Y470032D02*
D03*
Y462158D02*
D03*
Y454283D02*
D03*
Y446409D02*
D03*
Y438535D02*
D03*
Y430661D02*
D03*
X191028D02*
D03*
Y438535D02*
D03*
Y446409D02*
D03*
Y454283D02*
D03*
Y462158D02*
D03*
Y470032D02*
D03*
Y477906D02*
D03*
Y485780D02*
D03*
D12*
X141815Y425543D02*
D03*
X149689D02*
D03*
X157563D02*
D03*
X165437D02*
D03*
X173311D02*
D03*
X181185D02*
D03*
D14*
X151000Y388500D02*
D03*
Y370783D02*
D03*
X176591Y388500D02*
D03*
Y370783D02*
D03*
X113500Y388500D02*
D03*
Y370783D02*
D03*
X139091Y388500D02*
D03*
Y370783D02*
D03*
D15*
X147500Y412500D02*
D03*
X137500D02*
D03*
D16*
X127500D02*
D03*
D17*
X114000Y463500D02*
D03*
Y486500D02*
D03*
X173000Y412000D02*
D03*
D18*
X114000Y453500D02*
D03*
Y476500D02*
D03*
D19*
X114500Y438500D02*
D03*
X114300Y428500D02*
D03*
X114500Y418500D02*
D03*
X189500Y389500D02*
D03*
X189300Y379500D02*
D03*
X189500Y369500D02*
D03*
D20*
X183000Y412000D02*
D03*
M02*
