G04 Layer_Color=15132400*
%FSLAX25Y25*%
%MOIN*%
G70*
G01*
G75*
%ADD13C,0.01000*%
%ADD27C,0.00600*%
%ADD28C,0.00787*%
%ADD29C,0.00500*%
G36*
X183500Y389500D02*
X181500Y388000D01*
Y391000D01*
X183500Y389500D01*
D02*
G37*
G36*
X108500Y438500D02*
X106500Y437000D01*
Y440000D01*
X108500Y438500D01*
D02*
G37*
D13*
X127316Y402480D02*
G03*
X147593Y402309I10184J5296D01*
G01*
X146079Y393421D02*
X180528D01*
X181512D01*
Y365862D02*
Y393421D01*
X146079Y365862D02*
X181512D01*
X146079D02*
Y393421D01*
X149311Y402657D02*
Y407776D01*
X125689Y402657D02*
Y407382D01*
Y402657D02*
X149311D01*
X125689Y418406D02*
X149311D01*
X109000Y448500D02*
Y468500D01*
Y448500D02*
X119000D01*
Y468500D01*
X109000D02*
X119000D01*
X108579Y393421D02*
X143028D01*
X144012D01*
Y365862D02*
Y393421D01*
X108579Y365862D02*
X144012D01*
X108579D02*
Y393421D01*
X109000Y471500D02*
Y491500D01*
Y471500D02*
X119000D01*
Y491500D01*
X109000D02*
X119000D01*
X168000Y407000D02*
X188000D01*
Y417000D01*
X168000D02*
X188000D01*
X168000Y407000D02*
Y417000D01*
D27*
X110500Y443500D02*
X118500D01*
X109500Y414500D02*
X110500Y413500D01*
X118500D02*
X119500Y414500D01*
X110500Y413500D02*
X118500D01*
Y443500D02*
X119500Y442500D01*
Y414500D02*
Y442500D01*
X109500D02*
X110500Y443500D01*
X109500Y414500D02*
Y442500D01*
X185500Y394500D02*
X193500D01*
X184500Y365500D02*
X185500Y364500D01*
X193500D02*
X194500Y365500D01*
X185500Y364500D02*
X193500D01*
Y394500D02*
X194500Y393500D01*
Y365500D02*
Y393500D01*
X184500D02*
X185500Y394500D01*
X184500Y365500D02*
Y393500D01*
D28*
X130004Y424756D02*
X161500D01*
X130004D02*
Y472000D01*
X192996D02*
Y493000D01*
X152256Y493000D02*
X192996Y493000D01*
Y424756D02*
Y472000D01*
X161500Y424756D02*
X192996D01*
X130004Y493000D02*
X152256D01*
X130004Y472000D02*
Y493000D01*
D29*
X157500Y395500D02*
Y398499D01*
X159000D01*
X159499Y397999D01*
Y397000D01*
X159000Y396500D01*
X157500D01*
X158500D02*
X159499Y395500D01*
X162498Y398499D02*
X160499D01*
Y395500D01*
X162498D01*
X160499Y397000D02*
X161499D01*
X165497Y397999D02*
X164998Y398499D01*
X163998D01*
X163498Y397999D01*
Y397499D01*
X163998Y397000D01*
X164998D01*
X165497Y396500D01*
Y396000D01*
X164998Y395500D01*
X163998D01*
X163498Y396000D01*
X168496Y398499D02*
X166497D01*
Y395500D01*
X168496D01*
X166497Y397000D02*
X167497D01*
X169496Y398499D02*
X171495D01*
X170496D01*
Y395500D01*
X111000D02*
Y398499D01*
X112499D01*
X112999Y397999D01*
Y397000D01*
X112499Y396500D01*
X111000D01*
X113999Y395500D02*
Y398499D01*
X115499D01*
X115998Y397999D01*
Y397000D01*
X115499Y396500D01*
X113999D01*
X114999D02*
X115998Y395500D01*
X118498Y398499D02*
X117498D01*
X116998Y397999D01*
Y396000D01*
X117498Y395500D01*
X118498D01*
X118997Y396000D01*
Y397999D01*
X118498Y398499D01*
X121996Y397999D02*
X121497Y398499D01*
X120497D01*
X119997Y397999D01*
Y396000D01*
X120497Y395500D01*
X121497D01*
X121996Y396000D01*
Y397000D01*
X120997D01*
X124996Y397999D02*
X124496Y398499D01*
X123496D01*
X122996Y397999D01*
Y397499D01*
X123496Y397000D01*
X124496D01*
X124996Y396500D01*
Y396000D01*
X124496Y395500D01*
X123496D01*
X122996Y396000D01*
X125995Y398499D02*
Y395500D01*
X126995Y396500D01*
X127995Y395500D01*
Y398499D01*
X105001Y457499D02*
X104501Y456999D01*
Y456000D01*
X105001Y455500D01*
X105501D01*
X106000Y456000D01*
Y456999D01*
X106500Y457499D01*
X107000D01*
X107500Y456999D01*
Y456000D01*
X107000Y455500D01*
X104501Y459999D02*
Y458999D01*
X105001Y458499D01*
X107000D01*
X107500Y458999D01*
Y459999D01*
X107000Y460498D01*
X105001D01*
X104501Y459999D01*
Y461498D02*
X107500D01*
Y463497D01*
X168000Y403999D02*
X169000D01*
X168500D01*
Y401000D01*
X168000D01*
X169000D01*
X170499D02*
Y403999D01*
X171999D01*
X172499Y403499D01*
Y402499D01*
X171999Y402000D01*
X170499D01*
X171499D02*
X172499Y401000D01*
X176497Y403999D02*
Y401000D01*
X178497D01*
X181496Y403999D02*
X179496D01*
Y401000D01*
X181496D01*
X179496Y402499D02*
X180496D01*
X182495Y403999D02*
Y401000D01*
X183995D01*
X184495Y401500D01*
Y403499D01*
X183995Y403999D01*
X182495D01*
X107500Y478000D02*
X104501D01*
Y479499D01*
X105001Y479999D01*
X106000D01*
X106500Y479499D01*
Y478000D01*
X104501Y480999D02*
X107500D01*
X106500Y481999D01*
X107500Y482998D01*
X104501D01*
X107500Y483998D02*
X104501D01*
Y485498D01*
X105001Y485997D01*
X106000D01*
X106500Y485498D01*
Y483998D01*
Y484998D02*
X107500Y485997D01*
X105001Y423500D02*
X108000D01*
Y425499D01*
X105001Y428498D02*
Y426499D01*
X108000D01*
Y428498D01*
X106500Y426499D02*
Y427499D01*
X105001Y429498D02*
X108000D01*
Y430998D01*
X107500Y431497D01*
X105501D01*
X105001Y430998D01*
Y429498D01*
X105501Y434496D02*
X105001Y433997D01*
Y432997D01*
X105501Y432497D01*
X106001D01*
X106500Y432997D01*
Y433997D01*
X107000Y434496D01*
X107500D01*
X108000Y433997D01*
Y432997D01*
X107500Y432497D01*
X186000Y396500D02*
Y399499D01*
X187499D01*
X187999Y398999D01*
Y398000D01*
X187499Y397500D01*
X186000D01*
X188999Y398499D02*
Y396500D01*
Y397500D01*
X189499Y398000D01*
X189999Y398499D01*
X190499D01*
X192498Y396500D02*
X193498D01*
X193997Y397000D01*
Y398000D01*
X193498Y398499D01*
X192498D01*
X191998Y398000D01*
Y397000D01*
X192498Y396500D01*
X195997Y395500D02*
X196497D01*
X196996Y396000D01*
Y398499D01*
X195497D01*
X194997Y398000D01*
Y397000D01*
X195497Y396500D01*
X196996D01*
X155999Y409499D02*
X155499Y409999D01*
X154500D01*
X154000Y409499D01*
Y407500D01*
X154500Y407000D01*
X155499D01*
X155999Y407500D01*
X156999Y407000D02*
X157999D01*
X157499D01*
Y409999D01*
X156999Y409499D01*
X130000Y407999D02*
X131000D01*
X130500D01*
Y405000D01*
X130000D01*
X131000D01*
X132499D02*
Y407999D01*
X133999D01*
X134499Y407499D01*
Y406499D01*
X133999Y406000D01*
X132499D01*
X133499D02*
X134499Y405000D01*
X138497Y407999D02*
Y405000D01*
X139997D01*
X140497Y405500D01*
Y407499D01*
X139997Y407999D01*
X138497D01*
X143496D02*
X141496D01*
Y405000D01*
X143496D01*
X141496Y406499D02*
X142496D01*
X144495Y407999D02*
X146495D01*
X145495D01*
Y405000D01*
X121001Y450999D02*
X120501Y450499D01*
Y449500D01*
X121001Y449000D01*
X123000D01*
X123500Y449500D01*
Y450499D01*
X123000Y450999D01*
X122001D01*
Y450000D01*
X123500Y451999D02*
X120501D01*
X123500Y453998D01*
X120501D01*
Y454998D02*
X123500D01*
Y456498D01*
X123000Y456997D01*
X121001D01*
X120501Y456498D01*
Y454998D01*
X120501Y473499D02*
X120001Y472999D01*
Y472000D01*
X120501Y471500D01*
X122500D01*
X123000Y472000D01*
Y472999D01*
X122500Y473499D01*
X121501D01*
Y472500D01*
X123000Y474499D02*
X120001D01*
X123000Y476498D01*
X120001D01*
Y477498D02*
X123000D01*
Y478998D01*
X122500Y479497D01*
X120501D01*
X120001Y478998D01*
Y477498D01*
X120501Y483500D02*
X120001Y484000D01*
Y485000D01*
X120501Y485499D01*
X121001D01*
X121501Y485000D01*
Y484500D01*
Y485000D01*
X122000Y485499D01*
X122500D01*
X123000Y485000D01*
Y484000D01*
X122500Y483500D01*
X120001Y486499D02*
X122000D01*
X123000Y487499D01*
X122000Y488498D01*
X120001D01*
X120501Y489498D02*
X120001Y489998D01*
Y490998D01*
X120501Y491497D01*
X121001D01*
X121501Y490998D01*
Y490498D01*
Y490998D01*
X122000Y491497D01*
X122500D01*
X123000Y490998D01*
Y489998D01*
X122500Y489498D01*
X196001Y376000D02*
Y377999D01*
Y377000D01*
X199000D01*
X196001Y378999D02*
X199000Y380998D01*
X196001D02*
X199000Y378999D01*
X196501Y386499D02*
X196001Y385999D01*
Y385000D01*
X196501Y384500D01*
X198500D01*
X199000Y385000D01*
Y385999D01*
X198500Y386499D01*
X197501D01*
Y385500D01*
X199000Y387499D02*
X196001D01*
X199000Y389498D01*
X196001D01*
Y390498D02*
X199000D01*
Y391998D01*
X198500Y392497D01*
X196501D01*
X196001Y391998D01*
Y390498D01*
X199000Y366000D02*
X196001D01*
Y367499D01*
X196501Y367999D01*
X197501D01*
X198000Y367499D01*
Y366000D01*
Y367000D02*
X199000Y367999D01*
X196001Y368999D02*
X199000Y370998D01*
X196001D02*
X199000Y368999D01*
M02*
