G04 Layer_Color=20142*
%FSLAX25Y25*%
%MOIN*%
G70*
G01*
G75*
%ADD30R,0.04737X0.05918*%
%ADD31R,0.08674X0.04737*%
%ADD32R,0.04737X0.08674*%
%ADD33C,0.08674*%
%ADD34C,0.06800*%
%ADD35R,0.06800X0.06800*%
%ADD36C,0.06706*%
%ADD37R,0.06706X0.06706*%
%ADD38O,0.08800X0.06800*%
%ADD39R,0.06706X0.06706*%
D30*
X156047Y413500D02*
D03*
X161953D02*
D03*
D31*
X131972Y485780D02*
D03*
Y477906D02*
D03*
Y470032D02*
D03*
Y462158D02*
D03*
Y454283D02*
D03*
Y446409D02*
D03*
Y438535D02*
D03*
Y430661D02*
D03*
X191028D02*
D03*
Y438535D02*
D03*
Y446409D02*
D03*
Y454283D02*
D03*
Y462158D02*
D03*
Y470032D02*
D03*
Y477906D02*
D03*
Y485780D02*
D03*
D32*
X141815Y425543D02*
D03*
X149689D02*
D03*
X157563D02*
D03*
X165437D02*
D03*
X173311D02*
D03*
X181185D02*
D03*
D33*
X151000Y388500D02*
D03*
Y370783D02*
D03*
X176591Y388500D02*
D03*
Y370783D02*
D03*
X113500Y388500D02*
D03*
Y370783D02*
D03*
X139091Y388500D02*
D03*
Y370783D02*
D03*
D34*
X147500Y412500D02*
D03*
X137500D02*
D03*
D35*
X127500D02*
D03*
D36*
X114000Y463500D02*
D03*
Y486500D02*
D03*
X173000Y412000D02*
D03*
D37*
X114000Y453500D02*
D03*
Y476500D02*
D03*
D38*
X114500Y438500D02*
D03*
X114300Y428500D02*
D03*
X114500Y418500D02*
D03*
X189500Y389500D02*
D03*
X189300Y379500D02*
D03*
X189500Y369500D02*
D03*
D39*
X183000Y412000D02*
D03*
M02*
