G04 Layer_Color=25308*
%FSLAX25Y25*%
%MOIN*%
G70*
G01*
G75*
%ADD10R,0.03937X0.05118*%
%ADD14C,0.07874*%
%ADD15C,0.06000*%
%ADD16R,0.06000X0.06000*%
%ADD17C,0.05906*%
%ADD18R,0.05906X0.05906*%
%ADD19O,0.08000X0.06000*%
%ADD20R,0.05906X0.05906*%
%ADD22R,0.02362X0.06299*%
%ADD23R,0.03740X0.05315*%
%ADD24R,0.03150X0.03543*%
%ADD25R,0.06102X0.05315*%
%ADD26R,0.04134X0.05512*%
D10*
X169453Y436500D02*
D03*
X163547D02*
D03*
D14*
X151000Y388500D02*
D03*
Y370783D02*
D03*
X176591Y388500D02*
D03*
Y370783D02*
D03*
X113500Y388500D02*
D03*
Y370783D02*
D03*
X139091Y388500D02*
D03*
Y370783D02*
D03*
D15*
X147500Y412500D02*
D03*
X137500D02*
D03*
D16*
X127500D02*
D03*
D17*
X114000Y463500D02*
D03*
Y486500D02*
D03*
X173000Y412000D02*
D03*
D18*
X114000Y453500D02*
D03*
Y476500D02*
D03*
D19*
X114500Y438500D02*
D03*
X114300Y428500D02*
D03*
X114500Y418500D02*
D03*
X189500Y389500D02*
D03*
X189300Y379500D02*
D03*
X189500Y369500D02*
D03*
D20*
X183000Y412000D02*
D03*
D22*
X162240Y455457D02*
D03*
X154760D02*
D03*
X158500Y462543D02*
D03*
D23*
X178051Y470000D02*
D03*
X171949D02*
D03*
X143949Y470500D02*
D03*
X150051D02*
D03*
Y486000D02*
D03*
X143949D02*
D03*
X178051Y454500D02*
D03*
X171949D02*
D03*
X174551Y445000D02*
D03*
X168449D02*
D03*
D24*
X174500Y487437D02*
D03*
X170760Y479563D02*
D03*
X178240D02*
D03*
D25*
X162000Y473661D02*
D03*
Y481339D02*
D03*
D26*
X152240Y436500D02*
D03*
X144760D02*
D03*
X152240Y446000D02*
D03*
X144760D02*
D03*
X170760Y462000D02*
D03*
X178240D02*
D03*
M02*
