G04 Layer_Physical_Order=1*
G04 Layer_Color=25308*
%FSLAX25Y25*%
%MOIN*%
G70*
G01*
G75*
%ADD10R,0.03937X0.05118*%
%ADD11R,0.07874X0.03937*%
%ADD12R,0.03937X0.07874*%
%ADD13C,0.01000*%
%ADD14C,0.07874*%
%ADD15C,0.06000*%
%ADD16R,0.06000X0.06000*%
%ADD17C,0.05906*%
%ADD18R,0.05906X0.05906*%
%ADD19O,0.08000X0.06000*%
%ADD20R,0.05906X0.05906*%
%ADD21C,0.05000*%
D10*
X156047Y413500D02*
D03*
X161953D02*
D03*
D11*
X131972Y485780D02*
D03*
Y477906D02*
D03*
Y470032D02*
D03*
Y462158D02*
D03*
Y454283D02*
D03*
Y446409D02*
D03*
Y438535D02*
D03*
Y430661D02*
D03*
X191028D02*
D03*
Y438535D02*
D03*
Y446409D02*
D03*
Y454283D02*
D03*
Y462158D02*
D03*
Y470032D02*
D03*
Y477906D02*
D03*
Y485780D02*
D03*
D12*
X141815Y425543D02*
D03*
X149689D02*
D03*
X157563D02*
D03*
X165437D02*
D03*
X173311D02*
D03*
X181185D02*
D03*
D13*
X191028Y389500D02*
Y409300D01*
X137500Y426100D02*
Y431995D01*
X153700Y413500D02*
X156047D01*
X149800Y417400D02*
X153700Y413500D01*
X142400Y417400D02*
X149800D01*
X137500Y412500D02*
X142400Y417400D01*
X191028Y454283D02*
X195181D01*
X196465Y453000D01*
Y414765D02*
Y453000D01*
X195000Y413300D02*
X196465Y414765D01*
X184000Y477906D02*
X191028D01*
X185500Y418900D02*
X187500Y416900D01*
Y404500D02*
Y416900D01*
X183800Y400800D02*
X187500Y404500D01*
X183800Y370700D02*
Y400800D01*
Y370700D02*
X185000Y369500D01*
X189500D01*
X185000Y438535D02*
X191028D01*
X131972Y470032D02*
X136232D01*
X133000Y421600D02*
X137500Y426100D01*
X133000Y386000D02*
Y421600D01*
Y386000D02*
X136000Y383000D01*
X138783D02*
X151000Y370783D01*
X136000Y383000D02*
X138783D01*
X185883Y454283D02*
X191028D01*
Y485780D02*
X197262D01*
X199028Y484014D01*
Y383528D02*
Y484014D01*
X195000Y379500D02*
X199028Y383528D01*
X189300Y379500D02*
X195000D01*
X191028Y417328D02*
Y430661D01*
X191000Y417300D02*
X191028Y417328D01*
X191000Y409328D02*
Y417300D01*
Y409328D02*
X191028Y409300D01*
X189500Y389500D02*
X191028D01*
X186668Y470032D02*
X191028D01*
X184300Y472400D02*
X186668Y470032D01*
X153400Y478500D02*
Y481100D01*
X182600Y482300D02*
X195165D01*
X196465Y481000D01*
Y463622D02*
Y481000D01*
X195000Y462158D02*
X196465Y463622D01*
X191028Y462158D02*
X195000D01*
X147500Y412500D02*
X152000Y408000D01*
X159953D01*
X161953Y410000D01*
Y413500D01*
X114000Y476500D02*
X118500Y472000D01*
Y458000D02*
Y472000D01*
X114000Y453500D02*
X118500Y458000D01*
X114500Y438500D02*
X114886D01*
X114000Y453500D02*
X114886Y452614D01*
X108800Y481300D02*
X114000Y486500D01*
X108800Y419700D02*
Y481300D01*
Y419700D02*
X110000Y418500D01*
X114500D01*
X168200Y412000D02*
X173000D01*
X166700Y413500D02*
X168200Y412000D01*
X161953Y413500D02*
X166700D01*
X137500Y401291D02*
Y412500D01*
Y401291D02*
X139091Y399700D01*
Y388500D02*
Y399700D01*
X0Y534000D02*
Y609500D01*
X179590Y473496D02*
X184000Y477906D01*
X177300Y417700D02*
X183000Y412000D01*
X182500Y446500D02*
Y450900D01*
X185883Y454283D01*
X114886Y438500D02*
Y452614D01*
X131972Y438535D02*
X136035D01*
X123500Y446500D02*
X123591Y446409D01*
X131972D01*
X136000Y438500D02*
X136035Y438535D01*
X114886Y438500D02*
X119500D01*
Y436843D02*
Y438500D01*
Y436843D02*
X125682Y430661D01*
X131972D01*
X123500Y438500D02*
X136000D01*
X136200Y470000D02*
X136232Y470032D01*
X123500Y470000D02*
X136200D01*
X183965Y437500D02*
X185000Y438535D01*
X181500Y437500D02*
X183965D01*
X175500Y431800D02*
X177300Y430000D01*
X175500Y448785D02*
X177300Y450585D01*
Y417700D02*
Y430000D01*
X175500Y431800D02*
Y448785D01*
X177300Y450585D02*
Y477800D01*
X185500Y418900D02*
Y429255D01*
X181255Y433500D02*
X185500Y429255D01*
X179843Y433500D02*
X181255D01*
X177500Y435843D02*
X179843Y433500D01*
X177500Y447957D02*
X179590Y450047D01*
X177500Y435843D02*
Y447957D01*
X179590Y450047D02*
Y473496D01*
X131972Y485780D02*
X138669D01*
X141500Y482949D01*
Y479000D02*
Y482949D01*
Y436005D02*
Y479000D01*
X137500Y431995D02*
X141505Y436000D01*
X167500Y487600D02*
X177300Y477800D01*
X167500Y487600D02*
Y488500D01*
X164800Y492500D02*
X172400D01*
X153400Y481100D02*
X164800Y492500D01*
X172400D02*
X182600Y482300D01*
D14*
X151000Y388500D02*
D03*
Y370783D02*
D03*
X176591Y388500D02*
D03*
Y370783D02*
D03*
X113500Y388500D02*
D03*
Y370783D02*
D03*
X139091Y388500D02*
D03*
Y370783D02*
D03*
D15*
X147500Y412500D02*
D03*
X137500D02*
D03*
D16*
X127500D02*
D03*
D17*
X114000Y463500D02*
D03*
Y486500D02*
D03*
X173000Y412000D02*
D03*
D18*
X114000Y453500D02*
D03*
Y476500D02*
D03*
D19*
X114500Y438500D02*
D03*
X114300Y428500D02*
D03*
X114500Y418500D02*
D03*
X189500Y389500D02*
D03*
X189300Y379500D02*
D03*
X189500Y369500D02*
D03*
D20*
X183000Y412000D02*
D03*
D21*
X195000Y413300D02*
D03*
X184300Y472400D02*
D03*
X153400Y478500D02*
D03*
X182500Y446500D02*
D03*
X123500D02*
D03*
Y438500D02*
D03*
Y470000D02*
D03*
X181500Y437500D02*
D03*
X141500Y479000D02*
D03*
X167500Y488500D02*
D03*
M02*
