G04 Layer_Color=13813960*
%FSLAX25Y25*%
%MOIN*%
G70*
G01*
G75*
%ADD13C,0.01000*%
%ADD28C,0.00787*%
%ADD29C,0.00500*%
%ADD45C,0.00984*%
D13*
X197500Y404498D02*
Y398500D01*
Y400499D01*
X193501Y404498D01*
X196500Y401499D01*
X193501Y398500D01*
X190502Y402499D02*
X188503D01*
X187503Y401499D01*
Y398500D01*
X190502D01*
X191502Y399500D01*
X190502Y400499D01*
X187503D01*
X185504Y398500D02*
Y402499D01*
X182505D01*
X181505Y401499D01*
Y398500D01*
X179506Y402499D02*
Y399500D01*
X178506Y398500D01*
X175507D01*
Y402499D01*
X169509D02*
X172508D01*
X173508Y401499D01*
Y399500D01*
X172508Y398500D01*
X169509D01*
X167510D02*
Y404498D01*
Y400499D02*
X164511Y402499D01*
X167510Y400499D02*
X164511Y398500D01*
X161512D02*
X159512D01*
X160512D01*
Y402499D01*
X161512D01*
X156513Y398500D02*
X153514D01*
X152515Y399500D01*
X153514Y400499D01*
X155514D01*
X156513Y401499D01*
X155514Y402499D01*
X152515D01*
X149515Y403498D02*
Y402499D01*
X150515D01*
X148516D01*
X149515D01*
Y399500D01*
X148516Y398500D01*
X144517Y402499D02*
X142518D01*
X141518Y401499D01*
Y398500D01*
X144517D01*
X145517Y399500D01*
X144517Y400499D01*
X141518D01*
X139519Y398500D02*
Y402499D01*
X136520D01*
X135520Y401499D01*
Y398500D01*
X123524D02*
X127523D01*
X123524Y402499D01*
Y403498D01*
X124524Y404498D01*
X126523D01*
X127523Y403498D01*
X121525D02*
X120525Y404498D01*
X118526D01*
X117526Y403498D01*
Y399500D01*
X118526Y398500D01*
X120525D01*
X121525Y399500D01*
Y403498D01*
X115526Y398500D02*
X113527D01*
X114527D01*
Y404498D01*
X115526Y403498D01*
X106529Y404498D02*
X108529Y403498D01*
X110528Y401499D01*
Y399500D01*
X109529Y398500D01*
X107529D01*
X106529Y399500D01*
Y400499D01*
X107529Y401499D01*
X110528D01*
X173500Y382998D02*
Y377000D01*
X170501D01*
X169501Y378000D01*
Y378999D01*
X170501Y379999D01*
X173500D01*
X170501D01*
X169501Y380999D01*
Y381998D01*
X170501Y382998D01*
X173500D01*
X167502D02*
Y377000D01*
X163503D01*
X161504D02*
Y380999D01*
X159504Y382998D01*
X157505Y380999D01*
Y377000D01*
Y379999D01*
X161504D01*
X151507Y381998D02*
X152507Y382998D01*
X154506D01*
X155506Y381998D01*
Y380999D01*
X154506Y379999D01*
X152507D01*
X151507Y378999D01*
Y378000D01*
X152507Y377000D01*
X154506D01*
X155506Y378000D01*
X149508Y382998D02*
X145509D01*
X147508D01*
Y377000D01*
X140511Y382998D02*
X142510D01*
X143510Y381998D01*
Y378000D01*
X142510Y377000D01*
X140511D01*
X139511Y378000D01*
Y381998D01*
X140511Y382998D01*
X131514Y380999D02*
X129514Y377000D01*
X127515Y380999D01*
X121517Y377000D02*
X125515D01*
X121517Y380999D01*
Y381998D01*
X122517Y382998D01*
X124516D01*
X125515Y381998D01*
D28*
X164406Y460181D02*
Y461756D01*
X161256D02*
X164406D01*
X152594Y460181D02*
Y461756D01*
X155744D01*
X168791Y486059D02*
X171350D01*
X168791Y482858D02*
Y486059D01*
X180209Y482858D02*
Y486059D01*
X177650D02*
X180209D01*
D29*
X177500Y442000D02*
X180499D01*
Y443500D01*
X179999Y443999D01*
X178999D01*
X178500Y443500D01*
Y442000D01*
Y443000D02*
X177500Y443999D01*
X178000Y444999D02*
X177500Y445499D01*
Y446498D01*
X178000Y446998D01*
X179999D01*
X180499Y446498D01*
Y445499D01*
X179999Y444999D01*
X179499D01*
X178999Y445499D01*
Y446998D01*
X153000Y468000D02*
X155999D01*
Y469499D01*
X155499Y469999D01*
X154499D01*
X154000Y469499D01*
Y468000D01*
Y469000D02*
X153000Y469999D01*
X155499Y470999D02*
X155999Y471499D01*
Y472499D01*
X155499Y472998D01*
X154999D01*
X154499Y472499D01*
X154000Y472998D01*
X153500D01*
X153000Y472499D01*
Y471499D01*
X153500Y470999D01*
X154000D01*
X154499Y471499D01*
X154999Y470999D01*
X155499D01*
X154499Y471499D02*
Y472499D01*
X156000Y434000D02*
X158999D01*
Y435499D01*
X158499Y435999D01*
X157500D01*
X157000Y435499D01*
Y434000D01*
Y435000D02*
X156000Y435999D01*
X158999Y436999D02*
Y438998D01*
X158499D01*
X156500Y436999D01*
X156000D01*
Y443500D02*
X158999D01*
Y445000D01*
X158499Y445499D01*
X157500D01*
X157000Y445000D01*
Y443500D01*
Y444500D02*
X156000Y445499D01*
X158999Y448498D02*
X158499Y447499D01*
X157500Y446499D01*
X156500D01*
X156000Y446999D01*
Y447999D01*
X156500Y448498D01*
X157000D01*
X157500Y447999D01*
Y446499D01*
X153500Y483500D02*
X156499D01*
Y485000D01*
X155999Y485499D01*
X154999D01*
X154500Y485000D01*
Y483500D01*
Y484500D02*
X153500Y485499D01*
X156499Y488498D02*
Y486499D01*
X154999D01*
X155499Y487499D01*
Y487998D01*
X154999Y488498D01*
X154000D01*
X153500Y487998D01*
Y486999D01*
X154000Y486499D01*
X181500Y452000D02*
X184499D01*
Y453500D01*
X183999Y453999D01*
X183000D01*
X182500Y453500D01*
Y452000D01*
Y453000D02*
X181500Y453999D01*
Y456498D02*
X184499D01*
X183000Y454999D01*
Y456998D01*
X181000Y467500D02*
X183999D01*
Y468999D01*
X183499Y469499D01*
X182500D01*
X182000Y468999D01*
Y467500D01*
Y468500D02*
X181000Y469499D01*
X183499Y470499D02*
X183999Y470999D01*
Y471999D01*
X183499Y472498D01*
X182999D01*
X182500Y471999D01*
Y471499D01*
Y471999D01*
X182000Y472498D01*
X181500D01*
X181000Y471999D01*
Y470999D01*
X181500Y470499D01*
X164500Y485000D02*
Y487999D01*
X163001D01*
X162501Y487499D01*
Y486500D01*
X163001Y486000D01*
X164500D01*
X163500D02*
X162501Y485000D01*
X159502D02*
X161501D01*
X159502Y486999D01*
Y487499D01*
X160001Y487999D01*
X161001D01*
X161501Y487499D01*
X182000Y460000D02*
X184999D01*
Y461500D01*
X184499Y461999D01*
X183500D01*
X183000Y461500D01*
Y460000D01*
Y461000D02*
X182000Y461999D01*
Y462999D02*
Y463999D01*
Y463499D01*
X184999D01*
X184499Y462999D01*
X164501Y464000D02*
Y465999D01*
X165000Y466499D01*
X166000D01*
X166500Y465999D01*
Y464000D01*
X166000Y463500D01*
X165000D01*
X165500Y464500D02*
X164501Y463500D01*
X165000D02*
X164501Y464000D01*
X161502Y463500D02*
X163501D01*
X161502Y465499D01*
Y465999D01*
X162001Y466499D01*
X163001D01*
X163501Y465999D01*
X181001Y488000D02*
Y489999D01*
X181500Y490499D01*
X182500D01*
X183000Y489999D01*
Y488000D01*
X182500Y487500D01*
X181500D01*
X182000Y488500D02*
X181001Y487500D01*
X181500D02*
X181001Y488000D01*
X180001Y487500D02*
X179001D01*
X179501D01*
Y490499D01*
X180001Y489999D01*
X167001Y442999D02*
X167500Y443499D01*
X168500D01*
X169000Y442999D01*
Y441000D01*
X168500Y440500D01*
X167500D01*
X167001Y441000D01*
X164002Y440500D02*
X166001D01*
X164002Y442499D01*
Y442999D01*
X164501Y443499D01*
X165501D01*
X166001Y442999D01*
D45*
X166079Y455457D02*
G03*
X166079Y455457I-492J0D01*
G01*
X182472Y479563D02*
G03*
X182472Y479563I-492J0D01*
G01*
M02*
