G04 Layer_Color=8150272*
%FSLAX25Y25*%
%MOIN*%
G70*
G01*
G75*
%ADD30R,0.04737X0.05918*%
%ADD33C,0.08674*%
%ADD34C,0.06800*%
%ADD35R,0.06800X0.06800*%
%ADD36C,0.06706*%
%ADD37R,0.06706X0.06706*%
%ADD38O,0.08800X0.06800*%
%ADD39R,0.06706X0.06706*%
%ADD40R,0.03162X0.07099*%
%ADD41R,0.04540X0.06115*%
%ADD42R,0.03950X0.04343*%
%ADD43R,0.06902X0.06115*%
%ADD44R,0.04934X0.06312*%
D30*
X169453Y436500D02*
D03*
X163547D02*
D03*
D33*
X151000Y388500D02*
D03*
Y370783D02*
D03*
X176591Y388500D02*
D03*
Y370783D02*
D03*
X113500Y388500D02*
D03*
Y370783D02*
D03*
X139091Y388500D02*
D03*
Y370783D02*
D03*
D34*
X147500Y412500D02*
D03*
X137500D02*
D03*
D35*
X127500D02*
D03*
D36*
X114000Y463500D02*
D03*
Y486500D02*
D03*
X173000Y412000D02*
D03*
D37*
X114000Y453500D02*
D03*
Y476500D02*
D03*
D38*
X114500Y438500D02*
D03*
X114300Y428500D02*
D03*
X114500Y418500D02*
D03*
X189500Y389500D02*
D03*
X189300Y379500D02*
D03*
X189500Y369500D02*
D03*
D39*
X183000Y412000D02*
D03*
D40*
X162240Y455457D02*
D03*
X154760D02*
D03*
X158500Y462543D02*
D03*
D41*
X178051Y470000D02*
D03*
X171949D02*
D03*
X143949Y470500D02*
D03*
X150051D02*
D03*
Y486000D02*
D03*
X143949D02*
D03*
X178051Y454500D02*
D03*
X171949D02*
D03*
X174551Y445000D02*
D03*
X168449D02*
D03*
D42*
X174500Y487437D02*
D03*
X170760Y479563D02*
D03*
X178240D02*
D03*
D43*
X162000Y473661D02*
D03*
Y481339D02*
D03*
D44*
X152240Y436500D02*
D03*
X144760D02*
D03*
X152240Y446000D02*
D03*
X144760D02*
D03*
X170760Y462000D02*
D03*
X178240D02*
D03*
M02*
