M48
;Layer_Color=6321
;FILE_FORMAT=2:5
INCH,LZ
;TYPE=PLATED
T1F00S00C0.02800
T2F00S00C0.03000
T3F00S00C0.03600
T4F00S00C0.03937
%
T01
X01235Y04385
Y04465
X01825
X01815Y04375
X0195Y04133
X01843Y04724
X01675Y04885
X01534Y04785
X01415Y0479
X01235Y047
T02
X01275Y04125
X01375
X01475
T03
X01145Y04185
X01143Y04285
X01145Y04385
X01895Y03895
X01893Y03795
X01895Y03695
T04
X01135Y0370783
Y03885
X0139091
X0151
Y0370783
X0139091
X0114Y04535
Y04635
X0173Y0412
X0183
X0176591Y03885
Y0370783
X0114Y04765
Y04865
M30
